# xmcd
#
# Track frame offsets:
#  150
#  17320
#  34881
#  51222
#  63612
#  83189
#  101341
#  119655
#
# Disc length: 1815 seconds
#
# Revision: 9
# Processed by: cddbd v1.5.1PL0 Copyright (c) Steve Scherf et al.
# Submitted via: AltoMP3_Maker 3.0
#
DISCID=63071508
DTITLE=Radio Dervish - Acustico
DYEAR=1900
DGENRE=
TTITLE0=BAHIA
TTITLE1=Taci, il nemico ti ascolta
TTITLE2=Radio Dervish
TTITLE3=Gaza
TTITLE4=Rosa Di Turi
TTITLE5=New Partisan
TTITLE6=Due Soli
TTITLE7=Belzebù
EXTD=
EXTT0=
EXTT1=
EXTT2=
EXTT3=
EXTT4=
EXTT5=
EXTT6=
EXTT7=
PLAYORDER=
